<svg xmlns="http://www.w3.org/2000/svg" xmlns:svg="http://www.w3.org/2000/svg" xmlns:xlink="http://www.w3.org/1999/xlink"><text x="0"  y="15">SVG image</text>
<text x="40"  y="35">float</text>
<text x="130"  y="35">ПС Снп ВЛ Клс Первичное значение напряжение Uab</text>
<text id="SVG_Snp_VL_Kls_Uab" x="400"  y="35">value</text>
<rect id="REC_Snp_VL_Kls_Uab" x="10" y="20" width="20" height="20" fill="red"/>
<text x="40"  y="70">float</text>
<text x="130"  y="70">ПС Снп ВЛ Клс Первичное значение напряжение Ubc</text>
<text id="SVG_Snp_VL_Kls_Ubc" x="400"  y="70">value</text>
<rect id="REC_Snp_VL_Kls_Ubc" x="10" y="55" width="20" height="20" fill="red"/>
<text x="40"  y="105">float</text>
<text x="130"  y="105">ПС Снп ВЛ Клс Первичное значение напряжение Uca</text>
<text id="SVG_Snp_VL_Kls_Uca" x="400"  y="105">value</text>
<rect id="REC_Snp_VL_Kls_Uca" x="10" y="90" width="20" height="20" fill="red"/>
<text x="40"  y="140">float</text>
<text x="130"  y="140">ПС Снп ВЛ Клс Первичное значение тока Ia</text>
<text id="SVG_Snp_VL_Kls_Ia" x="400"  y="140">value</text>
<rect id="REC_Snp_VL_Kls_Ia" x="10" y="125" width="20" height="20" fill="red"/>
<text x="40"  y="175">float</text>
<text x="130"  y="175">ПС Снп ВЛ Клс Первичное значение тока Ib</text>
<text id="SVG_Snp_VL_Kls_Ib" x="400"  y="175">value</text>
<rect id="REC_Snp_VL_Kls_Ib" x="10" y="160" width="20" height="20" fill="red"/>
<text x="40"  y="210">float</text>
<text x="130"  y="210">ПС Снп ВЛ Клс Первичное значение тока Ic</text>
<text id="SVG_Snp_VL_Kls_Ic" x="400"  y="210">value</text>
<rect id="REC_Snp_VL_Kls_Ic" x="10" y="195" width="20" height="20" fill="red"/>
<text x="40"  y="245">float</text>
<text x="130"  y="245">ПС Снп ВЛ Клс Первичное значение акт мощности</text>
<text id="SVG_Snp_VL_Kls_Psum" x="400"  y="245">value</text>
<rect id="REC_Snp_VL_Kls_Psum" x="10" y="230" width="20" height="20" fill="red"/>
<text x="40"  y="280">float</text>
<text x="130"  y="280">ПС Снп ВЛ Мчл Первичное значение напражения Uab</text>
<text id="SVG_Snp_VL_Mch_Uab" x="400"  y="280">value</text>
<rect id="REC_Snp_VL_Mch_Uab" x="10" y="265" width="20" height="20" fill="red"/>
<text x="40"  y="315">float</text>
<text x="130"  y="315">ПС Снп ВЛ Мчл Первичное значение напражения Ubc</text>
<text id="SVG_Snp_VL_Mch_Ubc" x="400"  y="315">value</text>
<rect id="REC_Snp_VL_Mch_Ubc" x="10" y="300" width="20" height="20" fill="red"/>
<text x="40"  y="350">float</text>
<text x="130"  y="350">ПС Снп ВЛ Мчл Первичное значение напражения Uca</text>
<text id="SVG_Snp_VL_Mch_Uca" x="400"  y="350">value</text>
<rect id="REC_Snp_VL_Mch_Uca" x="10" y="335" width="20" height="20" fill="red"/>
<text x="40"  y="385">float</text>
<text x="130"  y="385">ПС Снп ВЛ Мчл Первичное значение тока Ia</text>
<text id="SVG_Snp_VL_Mch_Ia" x="400"  y="385">value</text>
<rect id="REC_Snp_VL_Mch_Ia" x="10" y="370" width="20" height="20" fill="red"/>
<text x="40"  y="420">float</text>
<text x="130"  y="420">ПС Снп ВЛ Мчл Первичное значение тока Ib</text>
<text id="SVG_Snp_VL_Mch_Ib" x="400"  y="420">value</text>
<rect id="REC_Snp_VL_Mch_Ib" x="10" y="405" width="20" height="20" fill="red"/>
<text x="40"  y="455">float</text>
<text x="130"  y="455">ПС Снп ВЛ Мчл Первичное значение тока Ic</text>
<text id="SVG_Snp_VL_Mch_Ic" x="400"  y="455">value</text>
<rect id="REC_Snp_VL_Mch_Ic" x="10" y="440" width="20" height="20" fill="red"/>
<text x="40"  y="490">float</text>
<text x="130"  y="490">ПС Снп ВЛ Мчл Первичное значение акт мощности</text>
<text id="SVG_Snp_VL_Mch_Psum" x="400"  y="490">value</text>
<rect id="REC_Snp_VL_Mch_Psum" x="10" y="475" width="20" height="20" fill="red"/>
<text x="40"  y="525">float</text>
<text x="130"  y="525">ПС Снп яч.3 Ток  Ia</text>
<text id="SVG_Snp_c3_Ia" x="400"  y="525">value</text>
<rect id="REC_Snp_c3_Ia" x="10" y="510" width="20" height="20" fill="red"/>
<text x="40"  y="560">float</text>
<text x="130"  y="560">ПС Снп яч.3 Ток  Ib</text>
<text id="SVG_Snp_c3_Ib" x="400"  y="560">value</text>
<rect id="REC_Snp_c3_Ib" x="10" y="545" width="20" height="20" fill="red"/>
<text x="40"  y="595">float</text>
<text x="130"  y="595">ПС Снп яч.3 Ток  Ic</text>
<text id="SVG_Snp_c3_Ic" x="400"  y="595">value</text>
<rect id="REC_Snp_c3_Ic" x="10" y="580" width="20" height="20" fill="red"/>
<text x="40"  y="630">float</text>
<text x="130"  y="630">ПС Снп яч.3 Напражение Uab</text>
<text id="SVG_Snp_c3_Uab" x="400"  y="630">value</text>
<rect id="REC_Snp_c3_Uab" x="10" y="615" width="20" height="20" fill="red"/>
<text x="40"  y="665">float</text>
<text x="130"  y="665">ПС Снп яч.3  Напражение Ubc</text>
<text id="SVG_Snp_c3_Ubc" x="400"  y="665">value</text>
<rect id="REC_Snp_c3_Ubc" x="10" y="650" width="20" height="20" fill="red"/>
<text x="40"  y="700">float</text>
<text x="130"  y="700">ПС Снп яч.3  Напражение Uca</text>
<text id="SVG_Snp_c3_Uca" x="400"  y="700">value</text>
<rect id="REC_Snp_c3_Uca" x="10" y="685" width="20" height="20" fill="red"/>
<text x="40"  y="735">float</text>
<text x="130"  y="735">ПС Снп яч.3 Акт мощность</text>
<text id="SVG_Snp_c3_Psum" x="400"  y="735">value</text>
<rect id="REC_Snp_c3_Psum" x="10" y="720" width="20" height="20" fill="red"/>
<text x="40"  y="770">float</text>
<text x="130"  y="770">ПС Снп яч.3 Ток  Ia Level</text>
<text id="SVG_Snp_c3_Ia_Level" x="400"  y="770">value</text>
<rect id="REC_Snp_c3_Ia_Level" x="10" y="755" width="20" height="20" fill="red"/>
<text x="40"  y="805">float</text>
<text x="130"  y="805">ПС Снп яч.5 Ток  Ia Level</text>
<text id="SVG_Snp_c5_Ia" x="400"  y="805">value</text>
<rect id="REC_Snp_c5_Ia" x="10" y="790" width="20" height="20" fill="red"/>
<text x="40"  y="840">float</text>
<text x="130"  y="840">ПС Снп яч.7 Ток  Ia Level</text>
<text id="SVG_Snp_c7_Ia" x="400"  y="840">value</text>
<rect id="REC_Snp_c7_Ia" x="10" y="825" width="20" height="20" fill="red"/>
<text x="40"  y="875">float</text>
<text x="130"  y="875">ПС Снп яч.9 Ток  Ia Level</text>
<text id="SVG_Snp_c9_Ia" x="400"  y="875">value</text>
<rect id="REC_Snp_c9_Ia" x="10" y="860" width="20" height="20" fill="red"/>
<text x="40"  y="910">float</text>
<text x="130"  y="910">ПС Снп яч.11 Ток  Ia Level</text>
<text id="SVG_Snp_c11_Ia" x="400"  y="910">value</text>
<rect id="REC_Snp_c11_Ia" x="10" y="895" width="20" height="20" fill="red"/>
<text x="40"  y="945">float</text>
<text x="130"  y="945">ПС Снп яч.13 Ток  Ia Level</text>
<text id="SVG_Snp_c13_Ia" x="400"  y="945">value</text>
<rect id="REC_Snp_c13_Ia" x="10" y="930" width="20" height="20" fill="red"/>
<text x="40"  y="980">float</text>
<text x="130"  y="980">ПС Снп яч.15 Ток  Ia Level</text>
<text id="SVG_Snp_c15_Ia" x="400"  y="980">value</text>
<rect id="REC_Snp_c15_Ia" x="10" y="965" width="20" height="20" fill="red"/>
<text x="40"  y="1015">float</text>
<text x="130"  y="1015">ПС Снп яч.17 Ток  Ia Level</text>
<text id="SVG_Snp_c17_Ia" x="400"  y="1015">value</text>
<rect id="REC_Snp_c17_Ia" x="10" y="1000" width="20" height="20" fill="red"/>
<text x="40"  y="1050">float</text>
<text x="130"  y="1050">ПС Снп яч.21 Ток  Ia Level</text>
<text id="SVG_Snp_c21_Ia" x="400"  y="1050">value</text>
<rect id="REC_Snp_c21_Ia" x="10" y="1035" width="20" height="20" fill="red"/>
<text x="40"  y="1085">float</text>
<text x="130"  y="1085">ПС Снп яч.6 Ток  Ia</text>
<text id="SVG_Snp_c6_Ia" x="400"  y="1085">value</text>
<rect id="REC_Snp_c6_Ia" x="10" y="1070" width="20" height="20" fill="red"/>
<text x="40"  y="1120">float</text>
<text x="130"  y="1120">ПС Снп яч.8 Ток  Ia</text>
<text id="SVG_Snp_c8_Ia" x="400"  y="1120">value</text>
<rect id="REC_Snp_c8_Ia" x="10" y="1105" width="20" height="20" fill="red"/>
<text x="40"  y="1155">float</text>
<text x="130"  y="1155">ПС Снп яч.14 Ток  Ia</text>
<text id="SVG_Snp_c14_Ia" x="400"  y="1155">value</text>
<rect id="REC_Snp_c14_Ia" x="10" y="1140" width="20" height="20" fill="red"/>
<text x="40"  y="1190">float</text>
<text x="130"  y="1190">ПС Снп яч.16 Ток  Ia</text>
<text id="SVG_Snp_c16_Ia" x="400"  y="1190">value</text>
<rect id="REC_Snp_c16_Ia" x="10" y="1175" width="20" height="20" fill="red"/>
<text x="40"  y="1225">float</text>
<text x="130"  y="1225">ПС Снп яч.18 Ток  Ia</text>
<text id="SVG_Snp_c18_Ia" x="400"  y="1225">value</text>
<rect id="REC_Snp_c18_Ia" x="10" y="1210" width="20" height="20" fill="red"/>
<text x="40"  y="1260">float</text>
<text x="130"  y="1260">ПС Снп яч.20 Ток  Ia</text>
<text id="SVG_Snp_c20_Ia" x="400"  y="1260">value</text>
<rect id="REC_Snp_c20_Ia" x="10" y="1245" width="20" height="20" fill="red"/>
<text x="40"  y="1295">float</text>
<text x="130"  y="1295">ПС Снп яч.20 Ток  Ib</text>
<text id="SVG_Snp_c20_Ib" x="400"  y="1295">value</text>
<rect id="REC_Snp_c20_Ib" x="10" y="1280" width="20" height="20" fill="red"/>
<text x="40"  y="1330">float</text>
<text x="130"  y="1330">ПС Снп яч.20 Ток  Ic</text>
<text id="SVG_Snp_c20_Ic" x="400"  y="1330">value</text>
<rect id="REC_Snp_c20_Ic" x="10" y="1315" width="20" height="20" fill="red"/>
<text x="40"  y="1365">float</text>
<text x="130"  y="1365">ПС Снп яч.20 Напражение Uab</text>
<text id="SVG_Snp_c20_Uab" x="400"  y="1365">value</text>
<rect id="REC_Snp_c20_Uab" x="10" y="1350" width="20" height="20" fill="red"/>
<text x="40"  y="1400">float</text>
<text x="130"  y="1400">ПС Снп яч.20 Напражение Ubc</text>
<text id="SVG_Snp_c20_Ubc" x="400"  y="1400">value</text>
<rect id="REC_Snp_c20_Ubc" x="10" y="1385" width="20" height="20" fill="red"/>
<text x="40"  y="1435">float</text>
<text x="130"  y="1435">ПС Снп яч.20 Напражение Uca</text>
<text id="SVG_Snp_c20_Uca" x="400"  y="1435">value</text>
<rect id="REC_Snp_c20_Uca" x="10" y="1420" width="20" height="20" fill="red"/>
<text x="40"  y="1470">float</text>
<text x="130"  y="1470">ПС Снп яч.20 Акт мощность</text>
<text id="SVG_Snp_c20_Psum" x="400"  y="1470">value</text>
<rect id="REC_Snp_c20_Psum" x="10" y="1455" width="20" height="20" fill="red"/>
<text x="40"  y="1505">float</text>
<text x="130"  y="1505">ПС Снп яч.20 Ток  Ia Level</text>
<text id="SVG_Snp_c20_Ia_Level" x="400"  y="1505">value</text>
<rect id="REC_Snp_c20_Ia_Level" x="10" y="1490" width="20" height="20" fill="red"/>
<text x="40"  y="1540">bool</text>
<text x="130"  y="1540">ПС Снп яч.3 Выключатель</text>
<text id="SVG_Snp_c3_RPV" x="400"  y="1540">value</text>
<rect id="REC_Snp_c3_RPV" x="10" y="1525" width="20" height="20" fill="red"/>
<text x="40"  y="1575">bool</text>
<text x="130"  y="1575">ПС Снп яч.7 Выключатель</text>
<text id="SVG_Snp_c7_RPV" x="400"  y="1575">value</text>
<rect id="REC_Snp_c7_RPV" x="10" y="1560" width="20" height="20" fill="red"/>
<text x="40"  y="1610">bool</text>
<text x="130"  y="1610">ПС Снп яч.5 Выключатель</text>
<text id="SVG_Snp_c5_RPV" x="400"  y="1610">value</text>
<rect id="REC_Snp_c5_RPV" x="10" y="1595" width="20" height="20" fill="red"/>
<text x="40"  y="1645">bool</text>
<text x="130"  y="1645">ПС Снп яч.9 Выключатель</text>
<text id="SVG_Snp_c9_RPV" x="400"  y="1645">value</text>
<rect id="REC_Snp_c9_RPV" x="10" y="1630" width="20" height="20" fill="red"/>
<text x="40"  y="1680">bool</text>
<text x="130"  y="1680">ПС Снп яч.11 Выключатель</text>
<text id="SVG_Snp_c11_RPV" x="400"  y="1680">value</text>
<rect id="REC_Snp_c11_RPV" x="10" y="1665" width="20" height="20" fill="red"/>
<text x="40"  y="1715">bool</text>
<text x="130"  y="1715">ПС Снп яч.13 Выключатель</text>
<text id="SVG_Snp_c13_RPV" x="400"  y="1715">value</text>
<rect id="REC_Snp_c13_RPV" x="10" y="1700" width="20" height="20" fill="red"/>
<text x="40"  y="1750">bool</text>
<text x="130"  y="1750">ПС Снп яч.15 Выключатель</text>
<text id="SVG_Snp_c15_RPV" x="400"  y="1750">value</text>
<rect id="REC_Snp_c15_RPV" x="10" y="1735" width="20" height="20" fill="red"/>
<text x="40"  y="1785">bool</text>
<text x="130"  y="1785">ПС Снп яч.17 Выключатель</text>
<text id="SVG_Snp_c17_RPV" x="400"  y="1785">value</text>
<rect id="REC_Snp_c17_RPV" x="10" y="1770" width="20" height="20" fill="red"/>
<text x="40"  y="1820">bool</text>
<text x="130"  y="1820">ПС Снп яч.21 Выключатель</text>
<text id="SVG_Snp_c21_RPV" x="400"  y="1820">value</text>
<rect id="REC_Snp_c21_RPV" x="10" y="1805" width="20" height="20" fill="red"/>
<text x="40"  y="1855">bool</text>
<text x="130"  y="1855">ПС Снп яч.6 Выключатель</text>
<text id="SVG_Snp_c6_RPV" x="400"  y="1855">value</text>
<rect id="REC_Snp_c6_RPV" x="10" y="1840" width="20" height="20" fill="red"/>
<text x="40"  y="1890">bool</text>
<text x="130"  y="1890">ПС Снп яч.8 Выключатель</text>
<text id="SVG_Snp_c8_RPV" x="400"  y="1890">value</text>
<rect id="REC_Snp_c8_RPV" x="10" y="1875" width="20" height="20" fill="red"/>
<text x="40"  y="1925">bool</text>
<text x="130"  y="1925">ПС Снп яч.14 Выключатель</text>
<text id="SVG_Snp_c14_RPV" x="400"  y="1925">value</text>
<rect id="REC_Snp_c14_RPV" x="10" y="1910" width="20" height="20" fill="red"/>
<text x="40"  y="1960">bool</text>
<text x="130"  y="1960">ПС Снп яч.16 Выключатель</text>
<text id="SVG_Snp_c16_RPV" x="400"  y="1960">value</text>
<rect id="REC_Snp_c16_RPV" x="10" y="1945" width="20" height="20" fill="red"/>
<text x="40"  y="1995">bool</text>
<text x="130"  y="1995">ПС Снп яч.18 Выключатель</text>
<text id="SVG_Snp_c18_RPV" x="400"  y="1995">value</text>
<rect id="REC_Snp_c18_RPV" x="10" y="1980" width="20" height="20" fill="red"/>
<text x="40"  y="2030">bool</text>
<text x="130"  y="2030">ПС Снп яч.20 Выключатель</text>
<text id="SVG_Snp_c20_RPV" x="400"  y="2030">value</text>
<rect id="REC_Snp_c20_RPV" x="10" y="2015" width="20" height="20" fill="red"/>
<text x="40"  y="2065">bool</text>
<text x="130"  y="2065">ПС Снп ЭВ-110 Т1</text>
<text id="SVG_Snp_EV_110_T1_RPV" x="400"  y="2065">value</text>
<rect id="REC_Snp_EV_110_T1_RPV" x="10" y="2050" width="20" height="20" fill="red"/>
<text x="40"  y="2100">bool</text>
<text x="130"  y="2100">ПС Снп ЭВ-110 Т2</text>
<text id="SVG_Snp_EV_110_T2_RPV" x="400"  y="2100">value</text>
<rect id="REC_Snp_EV_110_T2_RPV" x="10" y="2085" width="20" height="20" fill="red"/>
<text x="40"  y="2135">bool</text>
<text x="130"  y="2135">ПС Снп СЭВ-110</text>
<text id="SVG_Snp_SEV_110_RPV" x="400"  y="2135">value</text>
<rect id="REC_Snp_SEV_110_RPV" x="10" y="2120" width="20" height="20" fill="red"/>
<text x="40"  y="2170">float</text>
<text x="130"  y="2170">ПС Снп Т1 Ia</text>
<text id="SVG_Snp_T1_Ia" x="400"  y="2170">value</text>
<rect id="REC_Snp_T1_Ia" x="10" y="2155" width="20" height="20" fill="red"/>
<text x="40"  y="2205">float</text>
<text x="130"  y="2205">ПС Снп Т1 Ib</text>
<text id="SVG_Snp_T1_Ib" x="400"  y="2205">value</text>
<rect id="REC_Snp_T1_Ib" x="10" y="2190" width="20" height="20" fill="red"/>
<text x="40"  y="2240">float</text>
<text x="130"  y="2240">ПС Снп Т1 Ic</text>
<text id="SVG_Snp_T1_Ic" x="400"  y="2240">value</text>
<rect id="REC_Snp_T1_Ic" x="10" y="2225" width="20" height="20" fill="red"/>
<text x="40"  y="2275">float</text>
<text x="130"  y="2275">ПС Снп Т1 Uab</text>
<text id="SVG_Snp_T1_Uab" x="400"  y="2275">value</text>
<rect id="REC_Snp_T1_Uab" x="10" y="2260" width="20" height="20" fill="red"/>
<text x="40"  y="2310">float</text>
<text x="130"  y="2310">ПС Снп Т1 Ubc</text>
<text id="SVG_Snp_T1_Ubc" x="400"  y="2310">value</text>
<rect id="REC_Snp_T1_Ubc" x="10" y="2295" width="20" height="20" fill="red"/>
<text x="40"  y="2345">float</text>
<text x="130"  y="2345">ПС Снп Т1 Uca</text>
<text id="SVG_Snp_T1_Uca" x="400"  y="2345">value</text>
<rect id="REC_Snp_T1_Uca" x="10" y="2330" width="20" height="20" fill="red"/>
<text x="40"  y="2380">float</text>
<text x="130"  y="2380">ПС Снп Т1 P</text>
<text id="SVG_Snp_T1_P" x="400"  y="2380">value</text>
<rect id="REC_Snp_T1_P" x="10" y="2365" width="20" height="20" fill="red"/>
<text x="40"  y="2415">float</text>
<text x="130"  y="2415">ПС Снп Т2 Ia</text>
<text id="SVG_Snp_T2_Ia" x="400"  y="2415">value</text>
<rect id="REC_Snp_T2_Ia" x="10" y="2400" width="20" height="20" fill="red"/>
<text x="40"  y="2450">float</text>
<text x="130"  y="2450">ПС Снп Т2 Ib</text>
<text id="SVG_Snp_T2_Ib" x="400"  y="2450">value</text>
<rect id="REC_Snp_T2_Ib" x="10" y="2435" width="20" height="20" fill="red"/>
<text x="40"  y="2485">float</text>
<text x="130"  y="2485">ПС Снп Т2 Ic</text>
<text id="SVG_Snp_T2_Ic" x="400"  y="2485">value</text>
<rect id="REC_Snp_T2_Ic" x="10" y="2470" width="20" height="20" fill="red"/>
<text x="40"  y="2520">float</text>
<text x="130"  y="2520">ПС Снп Т2 Uab</text>
<text id="SVG_Snp_T2_Uab" x="400"  y="2520">value</text>
<rect id="REC_Snp_T2_Uab" x="10" y="2505" width="20" height="20" fill="red"/>
<text x="40"  y="2555">float</text>
<text x="130"  y="2555">ПС Снп Т2 Ubc</text>
<text id="SVG_Snp_T2_Ubc" x="400"  y="2555">value</text>
<rect id="REC_Snp_T2_Ubc" x="10" y="2540" width="20" height="20" fill="red"/>
<text x="40"  y="2590">float</text>
<text x="130"  y="2590">ПС Снп Т2 Uca</text>
<text id="SVG_Snp_T2_Uca" x="400"  y="2590">value</text>
<rect id="REC_Snp_T2_Uca" x="10" y="2575" width="20" height="20" fill="red"/>
<text x="40"  y="2625">float</text>
<text x="130"  y="2625">ПС Снп Т2 P</text>
<text id="SVG_Snp_T2_P" x="400"  y="2625">value</text>
<rect id="REC_Snp_T2_P" x="10" y="2610" width="20" height="20" fill="red"/>
<text x="40"  y="2660">float</text>
<text x="130"  y="2660">AI_TEST</text>
<text id="SVG_AI_TEST" x="400"  y="2660">value</text>
<rect id="REC_AI_TEST" x="10" y="2645" width="20" height="20" fill="red"/>
<text x="40"  y="2695">bool</text>
<text x="130"  y="2695">DI_TEST</text>
<text id="SVG_DI_TEST" x="400"  y="2695">value</text>
<rect id="REC_DI_TEST" x="10" y="2680" width="20" height="20" fill="red"/>
</svg>
