<svg xmlns="http://www.w3.org/2000/svg" xmlns:svg="http://www.w3.org/2000/svg" xmlns:xlink="http://www.w3.org/1999/xlink"><text x="0"  y="15">SVG image</text>
<text x="40"  y="35">string</text>
<text x="130"  y="35">Серийный номер 81</text>
<text id="SVG_SerialNumber_81" x="400"  y="35">value</text>
<rect id="REC_SerialNumber_81" x="10" y="20" width="20" height="20" fill="red"/>
<text x="40"  y="70">integer</text>
<text x="130"  y="70">Частота 81</text>
<text id="SVG_Freq_81" x="400"  y="70">value</text>
<rect id="REC_Freq_81" x="10" y="55" width="20" height="20" fill="red"/>
<text x="40"  y="105">integer</text>
<text x="130"  y="105">Энергия суммарная A+ 81</text>
<text id="SVG_Aplus_81" x="400"  y="105">value</text>
<rect id="REC_Aplus_81" x="10" y="90" width="20" height="20" fill="red"/>
<text x="40"  y="140">integer</text>
<text x="130"  y="140">Энергия суммарная A- 81</text>
<text id="SVG_Aminus_81" x="400"  y="140">value</text>
<rect id="REC_Aminus_81" x="10" y="125" width="20" height="20" fill="red"/>
<text x="40"  y="175">integer</text>
<text x="130"  y="175">Энергия суммарная R+ 81</text>
<text id="SVG_Rplus_81" x="400"  y="175">value</text>
<rect id="REC_Rplus_81" x="10" y="160" width="20" height="20" fill="red"/>
<text x="40"  y="210">integer</text>
<text x="130"  y="210">Энергия суммарная R- 81</text>
<text id="SVG_Rminus_81" x="400"  y="210">value</text>
<rect id="REC_Rminus_81" x="10" y="195" width="20" height="20" fill="red"/>
<text x="40"  y="245">integer</text>
<text x="130"  y="245">Напряжение фаза А 81</text>
<text id="SVG_U1_81" x="400"  y="245">value</text>
<rect id="REC_U1_81" x="10" y="230" width="20" height="20" fill="red"/>
<text x="40"  y="280">string</text>
<text x="130"  y="280">Серийный номер 43</text>
<text id="SVG_SerialNumber_43" x="400"  y="280">value</text>
<rect id="REC_SerialNumber_43" x="10" y="265" width="20" height="20" fill="red"/>
<text x="40"  y="315">integer</text>
<text x="130"  y="315">Энергия суммарная A+ 43</text>
<text id="SVG_Aplus_43" x="400"  y="315">value</text>
<rect id="REC_Aplus_43" x="10" y="300" width="20" height="20" fill="red"/>
<text x="40"  y="350">integer</text>
<text x="130"  y="350">Энергия суммарная A- 43</text>
<text id="SVG_Aminus_43" x="400"  y="350">value</text>
<rect id="REC_Aminus_43" x="10" y="335" width="20" height="20" fill="red"/>
</svg>
