<svg xmlns="http://www.w3.org/2000/svg" xmlns:svg="http://www.w3.org/2000/svg" xmlns:xlink="http://www.w3.org/1999/xlink"><text x="0"  y="15">SVG image</text>
<text x="40"  y="35">float</text>
<text x="130"  y="35">Температура на улице</text>
<text id="SVG_T_7002" x="400"  y="35">value</text>
<rect id="REC_T_7002" x="10" y="20" width="20" height="20" fill="red"/>
<text x="40"  y="70">float</text>
<text x="130"  y="70">Относительная влажность</text>
<text id="SVG_RH_7004" x="400"  y="70">value</text>
<rect id="REC_RH_7004" x="10" y="55" width="20" height="20" fill="red"/>
<text x="40"  y="105">float</text>
<text x="130"  y="105">Точка Росы</text>
<text id="SVG_Td_7006" x="400"  y="105">value</text>
<rect id="REC_Td_7006" x="10" y="90" width="20" height="20" fill="red"/>
<text x="40"  y="140">float</text>
<text x="130"  y="140">Абсолютная влажность</text>
<text id="SVG_A_7008" x="400"  y="140">value</text>
<rect id="REC_A_7008" x="10" y="125" width="20" height="20" fill="red"/>
<text x="40"  y="175">float</text>
<text x="130"  y="175">Минимальная температура</text>
<text id="SVG_MinT_7010" x="400"  y="175">value</text>
<rect id="REC_MinT_7010" x="10" y="160" width="20" height="20" fill="red"/>
<text x="40"  y="210">float</text>
<text x="130"  y="210">Махимальная температура</text>
<text id="SVG_MaxT_7012" x="400"  y="210">value</text>
<rect id="REC_MaxT_7012" x="10" y="195" width="20" height="20" fill="red"/>
<text x="40"  y="245">float</text>
<text x="130"  y="245">Минимальная отн.влажность</text>
<text id="SVG_MinRH_7014" x="400"  y="245">value</text>
<rect id="REC_MinRH_7014" x="10" y="230" width="20" height="20" fill="red"/>
<text x="40"  y="280">float</text>
<text x="130"  y="280">Максимальная отн.влажность</text>
<text id="SVG_MaxRH_7016" x="400"  y="280">value</text>
<rect id="REC_MaxRH_7016" x="10" y="265" width="20" height="20" fill="red"/>
<text x="40"  y="315">float</text>
<text x="130"  y="315">Минимальная точка росы</text>
<text id="SVG_MinTd_7018" x="400"  y="315">value</text>
<rect id="REC_MinTd_7018" x="10" y="300" width="20" height="20" fill="red"/>
<text x="40"  y="350">float</text>
<text x="130"  y="350">Максимальная точка росы</text>
<text id="SVG_MaxTd_7020" x="400"  y="350">value</text>
<rect id="REC_MaxTd_7020" x="10" y="335" width="20" height="20" fill="red"/>
<text x="40"  y="385">float</text>
<text x="130"  y="385">Минимальная абс.влажность</text>
<text id="SVG_MinA_7022" x="400"  y="385">value</text>
<rect id="REC_MinA_7022" x="10" y="370" width="20" height="20" fill="red"/>
<text x="40"  y="420">float</text>
<text x="130"  y="420">Максимальная абс.влажность</text>
<text id="SVG_MaxA_7024" x="400"  y="420">value</text>
<rect id="REC_MaxA_7024" x="10" y="405" width="20" height="20" fill="red"/>
</svg>
